<svg id="Capa_1" enable-background="new 0 0 504.501 504.501" height="512" viewBox="0 0 504.501 504.501" width="512" xmlns="http://www.w3.org/2000/svg"><g><path d="m270.048 118.805-21.602-55.257-21.602 55.257c-.267.683-.468 1.388-.605 2.105l22.208 10 22.207-10c-.137-.717-.339-1.422-.606-2.105z" fill="#f8e883"/><path d="m226.239 120.91c-.143.743-.217 1.5-.217 2.26v55.427h44.849v-55.427c0-.76-.074-1.517-.217-2.26z" fill="#eec06b"/><path d="m324.901 305.428v-41.68l.401-.19c-6.415-2.821-17.122-7.055-30.508-10.577v14.976c.107 24.431 13.148 37.471 30.107 37.471z" fill="#f8e883"/><path d="m201.992 266.922.014-13.887c-13.117 3.465-23.646 7.607-30.056 10.412l.148.3v41.678c16.908-.054 29.894-13.091 29.894-38.503z" fill="#eec06b"/><path d="m214.169 165.414 7.861 87.567h72.765v-72.384z" fill="#f8e883"/><path d="m270.871 160.597-22.425-6.979-22.423 6.979h-23.924l-.093 92.438 20.024-.054.069-72.384h3.924l22.423-6.979 22.425 6.979h23.924v-20z" fill="#eec06b"/><path d="m78.738 320.474c-5.44-13.164-21.605-20.235-39.158-16.885-2.633-8.649-11.131-14.154-19.58-16.043l-8.5 78.202z" fill="#b3e59f"/><path d="m31.134 347.435c-5.618 3.182-11.134.48-11.134-6.021 0-4.377 0-34.593 0-53.869-10.033-2.244-20 .616-20 9.435v82.46l80.677-48.944c0-3.629-.685-6.987-1.939-10.021-16.363 9.266-38.699 21.916-47.604 26.96z" fill="#7fcb8f"/><path d="m493.196 372.913-71.457-40.47c-2.255-1.277-4.801-1.948-7.392-1.948h-331.695c-2.591 0-5.138.671-7.392 1.948l-55.26 31.297-10 113.013 487-10v-87.313c0-2.702-1.453-5.195-3.804-6.527z" fill="#fefae3"/><path d="m20 459.253v-95.513l-16.196 9.173c-2.351 1.332-3.804 3.825-3.804 6.527v99.813c0 4.142 3.357 7.5 7.5 7.5h489.5v-20h-469.5c-4.143 0-7.5-3.358-7.5-7.5z" fill="#faf0b0"/><path d="m425.236 370.918c-3.374-1.912-7.208-2.922-11.088-2.922h-331.496c-3.88 0-7.714 1.01-11.088 2.922l-71.564 40.531v17.239l78.958-44.719c1.124-.637 2.401-.973 3.694-.973h331.496c1.293 0 2.57.336 3.694.973l78.958 44.719v-17.239z" fill="#faf0b0"/><path d="m324.901 305.428c-16.959 0-30-13.04-30.107-37.471v-14.976c-13.31-3.501-29.268-6.298-46.295-6.298-17.112 0-33.144 2.826-46.494 6.352l-.014 13.887c0 13.725-3.793 23.832-9.94 30.241l-9.953 179.589 142.803-10z" fill="#fefae3"/><path d="m192.099 350.496h132.803v-20h-132.803l-.047-33.332c-5.235 5.458-12.177 8.236-19.953 8.262v181.328h152.803v-20h-132.803z" fill="#faf0b0"/><path d="m263.5 330.496v-46.813s-6.716-7-15-7-15 7-15 7v46.813z" fill="#e3a76f"/><path d="m278.5 486.753s0-75.417 0-91.985-13.432-30-30-30-30 13.432-30 30v91.985z" fill="#e3a76f"/><path d="m138.5 486.753s0-35.417 0-51.985-13.432-30-30-30-30 13.432-30 30v51.985z" fill="#e3a76f"/><path d="m418.5 486.753s0-35.417 0-51.985-13.432-30-30-30-30 13.432-30 30v51.985z" fill="#e3a76f"/><circle cx="248.5" cy="202.507" fill="#c8c3ca" r="15"/><path d="m497 486.753c-4.143 0-7.5-3.358-7.5-7.5v-202.57c0-4.142 3.357-7.5 7.5-7.5s7.5 3.358 7.5 7.5v202.57c0 4.142-3.357 7.5-7.5 7.5z" fill="#e3a76f"/><path d="m464.878 318.942c1.166-10.645 15.003-31.928 33.306-34.853 3.823-.611 6.554-4.033 6.301-7.896-1.874-28.591-29.643-52.057-48.727-56.295-4.049-.9-8.05 1.653-8.947 5.696-.898 4.044 1.652 8.05 5.695 8.948 8.786 1.951 24.221 12.131 32.12 26.549-20.767-7.304-45.043-2.971-56.941 4.603-3.494 2.224-4.523 6.86-2.3 10.354 2.225 3.495 6.862 4.524 10.354 2.299 8.82-5.613 28.23-8.428 43.827-3.072-16.581 9.782-27.898 28.53-29.571 41.791-.518 4.109 2.394 7.861 6.503 8.379s7.858-1.737 8.38-6.503z" fill="#7fcb8f"/><g fill="#fefae3"><path d="m270.05 126.307c-2.998 0-5.83-1.81-6.987-4.771l-14.616-37.389-14.616 37.389c-1.508 3.858-5.858 5.762-9.716 4.255-3.858-1.508-5.763-5.858-4.255-9.716l21.602-55.257c1.125-2.876 3.897-4.769 6.985-4.769s5.86 1.893 6.985 4.769l21.602 55.257c1.508 3.858-.396 8.208-4.255 9.716-.897.35-1.821.516-2.729.516z"/><path d="m294.795 168.097h-23.924c-.756 0-1.507-.114-2.229-.339l-20.196-6.286-20.195 6.286c-.722.225-1.473.339-2.229.339h-23.924c-4.098 0-7.437-3.289-7.499-7.386l-.106-6.979c-.063-4.142 3.243-7.55 7.385-7.613.039 0 .078-.001.116-.001 3.953 0 7.212 3.068 7.48 6.979h15.407l21.336-6.641c1.451-.452 3.006-.452 4.457 0l21.336 6.641h15.445c.716-3.396 3.729-5.945 7.339-5.945 4.143 0 7.5 3.358 7.5 7.5v5.945c.001 4.142-3.356 7.5-7.499 7.5z"/><path d="m248.5 225.007c-12.406 0-22.5-10.093-22.5-22.5s10.094-22.5 22.5-22.5 22.5 10.093 22.5 22.5-10.094 22.5-22.5 22.5zm0-30c-4.136 0-7.5 3.364-7.5 7.5s3.364 7.5 7.5 7.5 7.5-3.364 7.5-7.5-3.364-7.5-7.5-7.5z"/><path d="m168.555 273.318c-3.664 1.927-8.195.518-10.125-3.143-1.928-3.663-.527-8.194 3.134-10.125.636-.335 15.827-8.282 38.615-14.291 4.005-1.055 8.108 1.334 9.164 5.34 1.057 4.005-1.334 8.108-5.34 9.164-21.024 5.544-35.306 12.981-35.448 13.055z"/><path d="m328.445 273.318c3.664 1.927 8.195.518 10.125-3.143 1.928-3.663.527-8.194-3.134-10.125-.636-.335-15.827-8.282-38.615-14.291-4.005-1.055-8.108 1.334-9.164 5.34-1.057 4.005 1.334 8.108 5.34 9.164 21.024 5.544 35.306 12.981 35.448 13.055z"/></g><path d="m292.997 260.263c4.006 1.056 8.109-1.335 9.164-5.34 1.057-4.005-1.334-8.108-5.34-9.164-16.547-4.364-32.805-6.576-48.321-6.576s-31.774 2.212-48.321 6.576c-4.006 1.056-6.396 5.159-5.34 9.164s5.16 6.395 9.164 5.34c15.3-4.034 30.271-6.08 44.497-6.08s29.197 2.046 44.497 6.08z" fill="#faf0b0"/><path d="m248.446 71.047c-4.143 0-7.5-3.358-7.5-7.5v-15.8h-7.446c-4.143 0-7.5-3.358-7.5-7.5s3.357-7.5 7.5-7.5h7.446v-7.5c0-4.142 3.357-7.5 7.5-7.5s7.5 3.358 7.5 7.5v7.5h7.554c4.143 0 7.5 3.358 7.5 7.5s-3.357 7.5-7.5 7.5h-7.554v15.8c0 4.142-3.357 7.5-7.5 7.5z" fill="#c8c3ca"/></g></svg>