<svg id="Capa_1" enable-background="new 0 0 512 512" height="512" viewBox="0 0 512 512" width="512" xmlns="http://www.w3.org/2000/svg"><g><path d="m139.5 504.5c-20.711 0-37.5-16.789-37.5-37.5v-422c0-20.711 16.789-37.5 37.5-37.5h233c20.711 0 37.5 16.789 37.5 37.5v422c0 20.711-16.789 37.5-37.5 37.5z" fill="#f5fcff"/><path d="m407.09 481.5c-5.66 13.51-19.02 23-34.59 23h-233c-20.71 0-37.5-16.79-37.5-37.5v-422c0-15.57 9.49-28.93 23-34.59v456.59c0 8 6.5 14.5 14.5 14.5z" fill="#e6f7fe"/><g><path d="m372.5 512h-233c-24.813 0-45-20.187-45-45v-422c0-24.813 20.187-45 45-45h233c24.813 0 45 20.187 45 45v422c0 24.813-20.187 45-45 45zm-233-497c-16.542 0-30 13.458-30 30v422c0 16.542 13.458 30 30 30h233c16.542 0 30-13.458 30-30v-422c0-16.542-13.458-30-30-30z" fill="#4e5a61"/></g><g><path d="m269 45h-50c-4.142 0-7.5-3.358-7.5-7.5s3.358-7.5 7.5-7.5h50c4.142 0 7.5 3.358 7.5 7.5s-3.358 7.5-7.5 7.5z" fill="#d3effd"/></g><g><path d="m294 45c-4.022.08-7.581-3.478-7.5-7.5-.05-3.478 2.6-6.73 6.03-7.35.97-.2 1.97-.2 2.94 0 3.431.62 6.079 3.872 6.03 7.35.079 4.023-3.48 7.576-7.5 7.5z" fill="#d3effd"/></g><path d="m206.298 246.759 9.329-20.155c2.115-4.569 1.154-9.971-2.406-13.531l-23.784-23.784c-4.688-4.688-12.289-4.688-16.977 0l-24.617 24.617.016.016c-7.056 7.057-6.233 15.066-1.598 24.528 28.069 57.296 69.989 99.215 127.284 127.284 9.463 4.636 17.486 5.479 24.543-1.578.007-.007.013-.014.019-.021l24.599-24.599c4.688-4.688 4.688-12.289 0-16.977l-13.786-13.789-10.996-9.996c-3.56-3.56-7.962-3.52-12.531-1.406l-20.155 9.329c-4.569 2.115-9.971.154-13.531-3.406l-43.002-43.002c-3.561-3.559-4.521-8.961-2.407-13.53z" fill="#94d4a2"/><path d="m308.92 308.77c-3.56-3.56-8.96-4.52-13.53-2.4l-20.15 9.33c-4.57 2.11-9.97 1.15-13.53-2.41l-10-10c3.56 3.56 8.96 4.52 13.53 2.41l20.15-9.33c4.57-2.12 9.97-1.16 13.53 2.4z" fill="#7fcb8f"/><path d="m298.63 363.61-.52.52c-.01.01-.01.02-.02.03-7.06 7.05-18.08 9.21-27.54 4.57-57.3-28.07-99.22-69.98-127.29-127.28-4.63-9.46-2.46-20.47 4.6-27.53l-.02-.01.54-.54c.25 3.38 1.2 6.81 2.9 10.1 31.41 60.64 76.61 105.83 137.25 137.24 3.29 1.7 6.72 2.65 10.1 2.9z" fill="#7fcb8f"/><g><g><g><path d="m333.066 261.118c-3.251 0-6.246-2.13-7.199-5.41-9.809-33.76-35.819-59.77-69.578-69.578-3.978-1.156-6.266-5.317-5.11-9.294 1.155-3.978 5.318-6.265 9.294-5.11 38.718 11.249 68.549 41.079 79.798 79.798 1.156 3.978-1.132 8.139-5.11 9.294-.698.203-1.402.3-2.095.3z" fill="#94d4a2"/></g><g><path d="m292.123 267.996c-3.251 0-6.246-2.13-7.199-5.41-5.006-17.231-18.282-30.507-35.513-35.513-3.978-1.156-6.266-5.317-5.11-9.294s5.318-6.267 9.294-5.11c22.19 6.447 39.286 23.543 45.733 45.733 1.156 3.978-1.132 8.139-5.11 9.294-.698.203-1.402.3-2.095.3z" fill="#94d4a2"/></g><g><path d="m371.182 257.067c-3.251 0-6.246-2.13-7.199-5.41-7.129-24.537-20.448-47.058-38.517-65.127-18.068-18.068-40.588-31.387-65.126-38.516-3.978-1.156-6.266-5.317-5.11-9.294s5.317-6.266 9.294-5.11c26.958 7.832 51.699 22.464 71.548 42.314 19.851 19.851 34.483 44.592 42.314 71.549 1.156 3.978-1.132 8.139-5.11 9.294-.697.204-1.401.3-2.094.3z" fill="#94d4a2"/></g></g></g></g></svg>